# xmcd
#
# Track frame offsets: 
#        187
#        29007
#        45470
#        72717
#        90465
#        110690
#        138567
#        163492
#
# Disc length: 2441 seconds
#
# Revision: 1
# Processed by: cddbd v1.5.2PL0 Copyright (c) Steve Scherf et al.
# Submitted via: ExactAudioCopy v1.0b3
#
DISCID=78098708
DTITLE=Free - Free Live!
DYEAR=1971
DGENRE=Blues Rock
TTITLE0=All Right Now
TTITLE1=I'm A Mover
TTITLE2=Be My Friend
TTITLE3=Fire And Water
TTITLE4=Ride On Pony
TTITLE5=Mr. Big
TTITLE6=The Hunter
TTITLE7=Get Where I Belong
EXTD=YEAR: 1971
EXTT0=
EXTT1=
EXTT2=
EXTT3=
EXTT4=
EXTT5=
EXTT6=
EXTT7=
PLAYORDER=
